<svg width="1524" height="789" xmlns="http://www.w3.org/2000/svg" xmlns:xlink="http://www.w3.org/1999/xlink" xml:space="preserve" overflow="hidden"><g transform="translate(-924 -69)"><path d="M2287.49 74.5003C2204.64 74.5003 2137.47 233.216 2137.47 429.001 2137.47 624.786 2204.64 783.502 2287.49 783.502L1108.51 783.5C1025.66 783.5 958.5 624.785 958.5 428.999 958.5 233.214 1025.66 74.4987 1108.51 74.4987Z" fill="#8E8E8E" fill-rule="evenodd" fill-opacity="0.219608"/><path d="M2287.49 74.5003C2370.34 74.5003 2437.5 233.216 2437.5 429.001 2437.5 624.786 2370.34 783.502 2287.49 783.502 2204.64 783.502 2137.47 624.786 2137.47 429.001 2137.47 233.216 2204.64 74.5003 2287.49 74.5003Z" fill="#BBBBBB" fill-rule="evenodd" fill-opacity="0.219608"/><path d="M2287.49 783.5C2204.64 783.5 2137.47 624.785 2137.47 428.999 2137.47 233.214 2204.64 74.4987 2287.49 74.4987 2370.34 74.4987 2437.5 233.214 2437.5 428.999 2437.5 624.785 2370.34 783.5 2287.49 783.5L1108.51 783.5C1025.66 783.5 958.5 624.785 958.5 428.999 958.5 233.214 1025.66 74.4987 1108.51 74.4987L2287.49 74.5003" stroke="#1C334E" stroke-width="9.16667" stroke-linejoin="round" stroke-miterlimit="10" fill="none" fill-rule="evenodd"/><path d="M1057.5 423.5C1057.5 246.217 1121.97 102.5 1201.5 102.5 1281.03 102.5 1345.5 246.217 1345.5 423.5 1345.5 600.783 1281.03 744.5 1201.5 744.5 1121.97 744.5 1057.5 600.783 1057.5 423.5Z" stroke="#1C334E" stroke-width="9.16667" stroke-linejoin="round" stroke-miterlimit="10" fill="#595959" fill-rule="evenodd"/><path d="M1458.25 178.5C1394.6 178.5 1343 293.786 1343 436 1343 578.213 1394.6 693.5 1458.25 693.5L1227.75 693.5C1164.1 693.5 1112.5 578.213 1112.5 436 1112.5 293.786 1164.1 178.5 1227.75 178.5Z" fill="#FFFFFF" fill-rule="evenodd"/><path d="M1458.25 178.5C1521.9 178.5 1573.5 293.786 1573.5 436 1573.5 578.213 1521.9 693.5 1458.25 693.5 1394.6 693.5 1343 578.213 1343 436 1343 293.786 1394.6 178.5 1458.25 178.5Z" fill="#FFFFFF" fill-rule="evenodd"/><path d="M1458.25 693.5C1394.6 693.5 1343 578.213 1343 436 1343 293.786 1394.6 178.5 1458.25 178.5 1521.9 178.5 1573.5 293.786 1573.5 436 1573.5 578.213 1521.9 693.5 1458.25 693.5L1227.75 693.5C1164.1 693.5 1112.5 578.213 1112.5 436 1112.5 293.786 1164.1 178.5 1227.75 178.5L1458.25 178.5" stroke="#1C334E" stroke-width="9.16667" stroke-linejoin="round" stroke-miterlimit="10" fill="none" fill-rule="evenodd"/><path d="M1282.5 427.5C1282.5 250.217 1347.19 106.5 1427 106.5 1506.81 106.5 1571.5 250.217 1571.5 427.5 1571.5 604.783 1506.81 748.5 1427 748.5 1347.19 748.5 1282.5 604.783 1282.5 427.5Z" stroke="#1C334E" stroke-width="9.16667" stroke-linejoin="round" stroke-miterlimit="10" fill="#7F7F7F" fill-rule="evenodd"/><path d="M1310.5 423.5C1310.5 246.217 1374.97 102.5 1454.5 102.5 1534.03 102.5 1598.5 246.217 1598.5 423.5 1598.5 600.783 1534.03 744.5 1454.5 744.5 1374.97 744.5 1310.5 600.783 1310.5 423.5Z" stroke="#1C334E" stroke-width="9.16667" stroke-linejoin="round" stroke-miterlimit="10" fill="#595959" fill-rule="evenodd"/><path d="M1710.25 178.5C1646.6 178.5 1595 293.787 1595 436 1595 578.213 1646.6 693.5 1710.25 693.5L1479.75 693.5C1416.1 693.5 1364.5 578.213 1364.5 436 1364.5 293.787 1416.1 178.5 1479.75 178.5Z" fill="#FFFFFF" fill-rule="evenodd"/><path d="M1710.25 178.5C1773.9 178.5 1825.5 293.787 1825.5 436 1825.5 578.213 1773.9 693.5 1710.25 693.5 1646.6 693.5 1595 578.213 1595 436 1595 293.787 1646.6 178.5 1710.25 178.5Z" fill="#FFFFFF" fill-rule="evenodd"/><path d="M1710.25 693.5C1646.6 693.5 1595 578.213 1595 436 1595 293.787 1646.6 178.5 1710.25 178.5 1773.9 178.5 1825.5 293.787 1825.5 436 1825.5 578.213 1773.9 693.5 1710.25 693.5L1479.75 693.5C1416.1 693.5 1364.5 578.213 1364.5 436 1364.5 293.787 1416.1 178.5 1479.75 178.5L1710.25 178.5" stroke="#1C334E" stroke-width="9.16667" stroke-linejoin="round" stroke-miterlimit="10" fill="none" fill-rule="evenodd"/><path d="M1535.5 427.5C1535.5 250.217 1599.97 106.5 1679.5 106.5 1759.03 106.5 1823.5 250.217 1823.5 427.5 1823.5 604.783 1759.03 748.5 1679.5 748.5 1599.97 748.5 1535.5 604.783 1535.5 427.5Z" stroke="#1C334E" stroke-width="9.16667" stroke-linejoin="round" stroke-miterlimit="10" fill="#7F7F7F" fill-rule="evenodd"/><path d="M1569.5 420.5C1569.5 243.216 1633.97 99.4998 1713.5 99.4998 1793.03 99.4998 1857.5 243.216 1857.5 420.5 1857.5 597.783 1793.03 741.5 1713.5 741.5 1633.97 741.5 1569.5 597.783 1569.5 420.5Z" stroke="#1C334E" stroke-width="9.16667" stroke-linejoin="round" stroke-miterlimit="10" fill="#595959" fill-rule="evenodd"/><path d="M1970.25 175.5C1906.6 175.5 1855 290.563 1855 432.5 1855 574.437 1906.6 689.5 1970.25 689.5L1739.75 689.5C1676.1 689.5 1624.5 574.437 1624.5 432.5 1624.5 290.563 1676.1 175.5 1739.75 175.5Z" fill="#FFFFFF" fill-rule="evenodd"/><path d="M1970.25 175.5C2033.9 175.5 2085.5 290.563 2085.5 432.5 2085.5 574.437 2033.9 689.5 1970.25 689.5 1906.6 689.5 1855 574.437 1855 432.5 1855 290.563 1906.6 175.5 1970.25 175.5Z" fill="#FFFFFF" fill-rule="evenodd"/><path d="M1970.25 689.5C1906.6 689.5 1855 574.437 1855 432.5 1855 290.563 1906.6 175.5 1970.25 175.5 2033.9 175.5 2085.5 290.563 2085.5 432.5 2085.5 574.437 2033.9 689.5 1970.25 689.5L1739.75 689.5C1676.1 689.5 1624.5 574.437 1624.5 432.5 1624.5 290.563 1676.1 175.5 1739.75 175.5L1970.25 175.5" stroke="#1C334E" stroke-width="9.16667" stroke-linejoin="round" stroke-miterlimit="10" fill="none" fill-rule="evenodd"/><path d="M1794.5 424.5C1794.5 247.217 1859.19 103.5 1939 103.5 2018.81 103.5 2083.5 247.217 2083.5 424.5 2083.5 601.783 2018.81 745.5 1939 745.5 1859.19 745.5 1794.5 601.783 1794.5 424.5Z" stroke="#1C334E" stroke-width="9.16667" stroke-linejoin="round" stroke-miterlimit="10" fill="#7F7F7F" fill-rule="evenodd"/><path d="M1839.5 420.5C1839.5 243.216 1903.97 99.4998 1983.5 99.4998 2063.03 99.4998 2127.5 243.216 2127.5 420.5 2127.5 597.783 2063.03 741.5 1983.5 741.5 1903.97 741.5 1839.5 597.783 1839.5 420.5Z" stroke="#1C334E" stroke-width="9.16667" stroke-linejoin="round" stroke-miterlimit="10" fill="#595959" fill-rule="evenodd"/><path d="M2240.25 175.5C2176.6 175.5 2125 290.563 2125 432.5 2125 574.437 2176.6 689.5 2240.25 689.5L2009.75 689.5C1946.1 689.5 1894.5 574.437 1894.5 432.5 1894.5 290.563 1946.1 175.5 2009.75 175.5Z" fill="#FFFFFF" fill-rule="evenodd"/><path d="M2240.25 175.5C2303.9 175.5 2355.5 290.563 2355.5 432.5 2355.5 574.437 2303.9 689.5 2240.25 689.5 2176.6 689.5 2125 574.437 2125 432.5 2125 290.563 2176.6 175.5 2240.25 175.5Z" fill="#FFFFFF" fill-rule="evenodd"/><path d="M2240.25 689.5C2176.6 689.5 2125 574.437 2125 432.5 2125 290.563 2176.6 175.5 2240.25 175.5 2303.9 175.5 2355.5 290.563 2355.5 432.5 2355.5 574.437 2303.9 689.5 2240.25 689.5L2009.75 689.5C1946.1 689.5 1894.5 574.437 1894.5 432.5 1894.5 290.563 1946.1 175.5 2009.75 175.5L2240.25 175.5" stroke="#1C334E" stroke-width="9.16667" stroke-linejoin="round" stroke-miterlimit="10" fill="none" fill-rule="evenodd"/><path d="M2064.5 424.5C2064.5 247.217 2129.19 103.5 2209 103.5 2288.81 103.5 2353.5 247.217 2353.5 424.5 2353.5 601.783 2288.81 745.5 2209 745.5 2129.19 745.5 2064.5 601.783 2064.5 424.5Z" stroke="#1C334E" stroke-width="9.16667" stroke-linejoin="round" stroke-miterlimit="10" fill="#7F7F7F" fill-rule="evenodd"/><path d="M2142.5 427C2142.5 232.32 2209.21 74.5001 2291.5 74.5001 2373.79 74.5001 2440.5 232.32 2440.5 427 2440.5 621.681 2373.79 779.5 2291.5 779.5 2209.21 779.5 2142.5 621.681 2142.5 427Z" stroke="#262626" stroke-width="9.16667" stroke-linejoin="round" stroke-miterlimit="10" fill="#D1D1D1" fill-rule="evenodd" fill-opacity="0.219608"/><rect x="928.5" y="466.5" width="1211" height="385" stroke="#404040" stroke-width="9.16667" stroke-linejoin="round" stroke-miterlimit="10" fill="#404040" fill-opacity="0.819608"/><path d="M2443.28 399.717 2439.91 787.172 2138.62 853.184 2141.99 465.729Z" stroke="#7F7F7F" stroke-width="9.16667" stroke-linejoin="round" stroke-miterlimit="10" fill="#404040" fill-rule="evenodd" fill-opacity="0.819608"/></g></svg>