<svg width="383" height="418" xmlns="http://www.w3.org/2000/svg" xmlns:xlink="http://www.w3.org/1999/xlink" xml:space="preserve" overflow="hidden"><g transform="translate(-298 -221)"><path d="M583 225.5C531.361 225.5 489.5 317.058 489.5 430 489.5 542.942 531.361 634.5 583 634.5L396 634.5C344.361 634.5 302.5 542.942 302.5 430 302.5 317.058 344.361 225.5 396 225.5Z" fill="#FFFFFF" fill-rule="evenodd"/><path d="M583 225.5C634.639 225.5 676.5 317.058 676.5 430 676.5 542.942 634.639 634.5 583 634.5 531.361 634.5 489.5 542.942 489.5 430 489.5 317.058 531.361 225.5 583 225.5Z" fill="#FFFFFF" fill-rule="evenodd"/><path d="M583 634.5C531.361 634.5 489.5 542.942 489.5 430 489.5 317.058 531.361 225.5 583 225.5 634.639 225.5 676.5 317.058 676.5 430 676.5 542.942 634.639 634.5 583 634.5L396 634.5C344.361 634.5 302.5 542.942 302.5 430 302.5 317.058 344.361 225.5 396 225.5L583 225.5" stroke="#1C334E" stroke-width="9.16667" stroke-linejoin="round" stroke-miterlimit="10" fill="none" fill-rule="evenodd"/></g></svg>