<svg width="615" height="626" xmlns="http://www.w3.org/2000/svg" xmlns:xlink="http://www.w3.org/1999/xlink" xml:space="preserve" overflow="hidden"><g transform="translate(-148 -139)"><path d="M628.404 143.5C558.21 143.5 501.307 269.308 501.307 424.5 501.307 579.693 558.21 705.501 628.404 705.501L304.596 705.5C234.403 705.5 177.5 579.692 177.5 424.5 177.5 269.308 234.403 143.499 304.596 143.499Z" fill="#8E8E8E" fill-rule="evenodd" fill-opacity="0.219608"/><path d="M628.404 143.5C698.597 143.5 755.5 269.308 755.5 424.5 755.5 579.693 698.597 705.501 628.404 705.501 558.21 705.501 501.307 579.693 501.307 424.5 501.307 269.308 558.21 143.5 628.404 143.5Z" fill="#BBBBBB" fill-rule="evenodd" fill-opacity="0.219608"/><path d="M628.404 705.5C558.21 705.5 501.307 579.692 501.307 424.5 501.307 269.308 558.21 143.499 628.404 143.499 698.597 143.499 755.5 269.308 755.5 424.5 755.5 579.692 698.597 705.5 628.404 705.5L304.596 705.5C234.403 705.5 177.5 579.692 177.5 424.5 177.5 269.308 234.403 143.499 304.596 143.499L628.404 143.5" stroke="#1C334E" stroke-width="9.16667" stroke-linejoin="round" stroke-miterlimit="10" fill="none" fill-rule="evenodd"/><path d="M257.5 420.5C257.5 279.667 309.883 165.5 374.5 165.5 439.117 165.5 491.5 279.667 491.5 420.5 491.5 561.333 439.117 675.5 374.5 675.5 309.883 675.5 257.5 561.333 257.5 420.5Z" stroke="#1C334E" stroke-width="9.16667" stroke-linejoin="round" stroke-miterlimit="10" fill="#595959" fill-rule="evenodd"/><path d="M583 225.5C531.361 225.5 489.5 317.058 489.5 430 489.5 542.942 531.361 634.5 583 634.5L396 634.5C344.361 634.5 302.5 542.942 302.5 430 302.5 317.058 344.361 225.5 396 225.5Z" fill="#FFFFFF" fill-rule="evenodd"/><path d="M583 225.5C634.639 225.5 676.5 317.058 676.5 430 676.5 542.942 634.639 634.5 583 634.5 531.361 634.5 489.5 542.942 489.5 430 489.5 317.058 531.361 225.5 583 225.5Z" fill="#FFFFFF" fill-rule="evenodd"/><path d="M583 634.5C531.361 634.5 489.5 542.942 489.5 430 489.5 317.058 531.361 225.5 583 225.5 634.639 225.5 676.5 317.058 676.5 430 676.5 542.942 634.639 634.5 583 634.5L396 634.5C344.361 634.5 302.5 542.942 302.5 430 302.5 317.058 344.361 225.5 396 225.5L583 225.5" stroke="#1C334E" stroke-width="9.16667" stroke-linejoin="round" stroke-miterlimit="10" fill="none" fill-rule="evenodd"/><path d="M440.5 423.5C440.5 282.667 492.883 168.5 557.5 168.5 622.117 168.5 674.5 282.667 674.5 423.5 674.5 564.333 622.117 678.5 557.5 678.5 492.883 678.5 440.5 564.333 440.5 423.5Z" stroke="#1C334E" stroke-width="9.16667" stroke-linejoin="round" stroke-miterlimit="10" fill="#7F7F7F" fill-rule="evenodd"/><path d="M494.5 426C494.5 271.636 552.927 146.5 625 146.5 697.073 146.5 755.5 271.636 755.5 426 755.5 580.363 697.073 705.5 625 705.5 552.927 705.5 494.5 580.363 494.5 426Z" stroke="#262626" stroke-width="9.16667" stroke-linejoin="round" stroke-miterlimit="10" fill="#D1D1D1" fill-rule="evenodd" fill-opacity="0.219608"/><rect x="152.5" y="454.5" width="351" height="306" stroke="#404040" stroke-width="9.16667" stroke-linejoin="round" stroke-miterlimit="10" fill="#404040" fill-opacity="0.819608"/><path d="M758.211 396.669 755.537 704.12 504.134 759.202 506.807 451.751Z" stroke="#7F7F7F" stroke-width="9.16667" stroke-linejoin="round" stroke-miterlimit="10" fill="#404040" fill-rule="evenodd" fill-opacity="0.819608"/></g></svg>