<svg width="1252" height="527" xmlns="http://www.w3.org/2000/svg" xmlns:xlink="http://www.w3.org/1999/xlink" xml:space="preserve" overflow="hidden"><g transform="translate(-1108 -171)"><path d="M1458.25 178.5C1394.6 178.5 1343 293.786 1343 436 1343 578.213 1394.6 693.5 1458.25 693.5L1227.75 693.5C1164.1 693.5 1112.5 578.213 1112.5 436 1112.5 293.786 1164.1 178.5 1227.75 178.5Z" fill="#FFFFFF" fill-rule="evenodd"/><path d="M1458.25 178.5C1521.9 178.5 1573.5 293.786 1573.5 436 1573.5 578.213 1521.9 693.5 1458.25 693.5 1394.6 693.5 1343 578.213 1343 436 1343 293.786 1394.6 178.5 1458.25 178.5Z" fill="#FFFFFF" fill-rule="evenodd"/><path d="M1458.25 693.5C1394.6 693.5 1343 578.213 1343 436 1343 293.786 1394.6 178.5 1458.25 178.5 1521.9 178.5 1573.5 293.786 1573.5 436 1573.5 578.213 1521.9 693.5 1458.25 693.5L1227.75 693.5C1164.1 693.5 1112.5 578.213 1112.5 436 1112.5 293.786 1164.1 178.5 1227.75 178.5L1458.25 178.5" stroke="#1C334E" stroke-width="9.16667" stroke-linejoin="round" stroke-miterlimit="10" fill="none" fill-rule="evenodd"/><path d="M1710.25 178.5C1646.6 178.5 1595 293.787 1595 436 1595 578.213 1646.6 693.5 1710.25 693.5L1479.75 693.5C1416.1 693.5 1364.5 578.213 1364.5 436 1364.5 293.787 1416.1 178.5 1479.75 178.5Z" fill="#FFFFFF" fill-rule="evenodd"/><path d="M1710.25 178.5C1773.9 178.5 1825.5 293.787 1825.5 436 1825.5 578.213 1773.9 693.5 1710.25 693.5 1646.6 693.5 1595 578.213 1595 436 1595 293.787 1646.6 178.5 1710.25 178.5Z" fill="#FFFFFF" fill-rule="evenodd"/><path d="M1710.25 693.5C1646.6 693.5 1595 578.213 1595 436 1595 293.787 1646.6 178.5 1710.25 178.5 1773.9 178.5 1825.5 293.787 1825.5 436 1825.5 578.213 1773.9 693.5 1710.25 693.5L1479.75 693.5C1416.1 693.5 1364.5 578.213 1364.5 436 1364.5 293.787 1416.1 178.5 1479.75 178.5L1710.25 178.5" stroke="#1C334E" stroke-width="9.16667" stroke-linejoin="round" stroke-miterlimit="10" fill="none" fill-rule="evenodd"/><path d="M1970.25 175.5C1906.6 175.5 1855 290.563 1855 432.5 1855 574.437 1906.6 689.5 1970.25 689.5L1739.75 689.5C1676.1 689.5 1624.5 574.437 1624.5 432.5 1624.5 290.563 1676.1 175.5 1739.75 175.5Z" fill="#FFFFFF" fill-rule="evenodd"/><path d="M1970.25 175.5C2033.9 175.5 2085.5 290.563 2085.5 432.5 2085.5 574.437 2033.9 689.5 1970.25 689.5 1906.6 689.5 1855 574.437 1855 432.5 1855 290.563 1906.6 175.5 1970.25 175.5Z" fill="#FFFFFF" fill-rule="evenodd"/><path d="M1970.25 689.5C1906.6 689.5 1855 574.437 1855 432.5 1855 290.563 1906.6 175.5 1970.25 175.5 2033.9 175.5 2085.5 290.563 2085.5 432.5 2085.5 574.437 2033.9 689.5 1970.25 689.5L1739.75 689.5C1676.1 689.5 1624.5 574.437 1624.5 432.5 1624.5 290.563 1676.1 175.5 1739.75 175.5L1970.25 175.5" stroke="#1C334E" stroke-width="9.16667" stroke-linejoin="round" stroke-miterlimit="10" fill="none" fill-rule="evenodd"/><path d="M2240.25 175.5C2176.6 175.5 2125 290.563 2125 432.5 2125 574.437 2176.6 689.5 2240.25 689.5L2009.75 689.5C1946.1 689.5 1894.5 574.437 1894.5 432.5 1894.5 290.563 1946.1 175.5 2009.75 175.5Z" fill="#FFFFFF" fill-rule="evenodd"/><path d="M2240.25 175.5C2303.9 175.5 2355.5 290.563 2355.5 432.5 2355.5 574.437 2303.9 689.5 2240.25 689.5 2176.6 689.5 2125 574.437 2125 432.5 2125 290.563 2176.6 175.5 2240.25 175.5Z" fill="#FFFFFF" fill-rule="evenodd"/><path d="M2240.25 689.5C2176.6 689.5 2125 574.437 2125 432.5 2125 290.563 2176.6 175.5 2240.25 175.5 2303.9 175.5 2355.5 290.563 2355.5 432.5 2355.5 574.437 2303.9 689.5 2240.25 689.5L2009.75 689.5C1946.1 689.5 1894.5 574.437 1894.5 432.5 1894.5 290.563 1946.1 175.5 2009.75 175.5L2240.25 175.5" stroke="#1C334E" stroke-width="9.16667" stroke-linejoin="round" stroke-miterlimit="10" fill="none" fill-rule="evenodd"/></g></svg>