<svg width="3008" height="2346" xmlns="http://www.w3.org/2000/svg" xmlns:xlink="http://www.w3.org/1999/xlink" xml:space="preserve" overflow="hidden"><g transform="translate(-2705 -1036)"><rect x="4310.5" y="1040.5" width="280" height="733" stroke="#1C334E" stroke-width="9.16667" stroke-linejoin="round" stroke-miterlimit="10" fill="#B1A55B"/><rect x="4620.5" y="1040.5" width="280" height="733" stroke="#1C334E" stroke-width="9.16667" stroke-linejoin="round" stroke-miterlimit="10" fill="#B1A55B"/><rect x="5109.5" y="1040.5" width="279" height="733" stroke="#1C334E" stroke-width="9.16667" stroke-linejoin="round" stroke-miterlimit="10" fill="#B1A55B"/><rect x="5419.5" y="1040.5" width="279" height="733" stroke="#1C334E" stroke-width="9.16667" stroke-linejoin="round" stroke-miterlimit="10" fill="#B1A55B"/><rect x="4314.5" y="1842.5" width="279" height="733" stroke="#1C334E" stroke-width="9.16667" stroke-linejoin="round" stroke-miterlimit="10" fill="#B1A55B"/><rect x="4624.5" y="1842.5" width="279" height="733" stroke="#1C334E" stroke-width="9.16667" stroke-linejoin="round" stroke-miterlimit="10" fill="#B1A55B"/><rect x="5112.5" y="1842.5" width="280" height="733" stroke="#1C334E" stroke-width="9.16667" stroke-linejoin="round" stroke-miterlimit="10" fill="#B1A55B"/><rect x="5422.5" y="1842.5" width="280" height="733" stroke="#1C334E" stroke-width="9.16667" stroke-linejoin="round" stroke-miterlimit="10" fill="#B1A55B"/><rect x="4320.5" y="2644.5" width="280" height="733" stroke="#1C334E" stroke-width="9.16667" stroke-linejoin="round" stroke-miterlimit="10" fill="#B1A55B"/><rect x="4630.5" y="2644.5" width="280" height="733" stroke="#1C334E" stroke-width="9.16667" stroke-linejoin="round" stroke-miterlimit="10" fill="#B1A55B"/><rect x="5119.5" y="2644.5" width="279" height="733" stroke="#1C334E" stroke-width="9.16667" stroke-linejoin="round" stroke-miterlimit="10" fill="#B1A55B"/><rect x="5429.5" y="2644.5" width="279" height="733" stroke="#1C334E" stroke-width="9.16667" stroke-linejoin="round" stroke-miterlimit="10" fill="#B1A55B"/><rect x="2709.5" y="1040.5" width="281" height="733" stroke="#1C334E" stroke-width="9.16667" stroke-linejoin="round" stroke-miterlimit="10" fill="#B1A55B"/><rect x="3020.5" y="1040.5" width="281" height="733" stroke="#1C334E" stroke-width="9.16667" stroke-linejoin="round" stroke-miterlimit="10" fill="#B1A55B"/><rect x="3510.5" y="1040.5" width="281" height="733" stroke="#1C334E" stroke-width="9.16667" stroke-linejoin="round" stroke-miterlimit="10" fill="#B1A55B"/><rect x="3821.5" y="1040.5" width="280" height="733" stroke="#1C334E" stroke-width="9.16667" stroke-linejoin="round" stroke-miterlimit="10" fill="#B1A55B"/><rect x="2713.5" y="1842.5" width="280" height="733" stroke="#1C334E" stroke-width="9.16667" stroke-linejoin="round" stroke-miterlimit="10" fill="#B1A55B"/><rect x="3024.5" y="1842.5" width="280" height="733" stroke="#1C334E" stroke-width="9.16667" stroke-linejoin="round" stroke-miterlimit="10" fill="#B1A55B"/><rect x="3513.5" y="1842.5" width="281" height="733" stroke="#1C334E" stroke-width="9.16667" stroke-linejoin="round" stroke-miterlimit="10" fill="#B1A55B"/><rect x="3824.5" y="1842.5" width="281" height="733" stroke="#1C334E" stroke-width="9.16667" stroke-linejoin="round" stroke-miterlimit="10" fill="#B1A55B"/><rect x="2719.5" y="2644.5" width="281" height="733" stroke="#1C334E" stroke-width="9.16667" stroke-linejoin="round" stroke-miterlimit="10" fill="#B1A55B"/><rect x="3030.5" y="2644.5" width="281" height="733" stroke="#1C334E" stroke-width="9.16667" stroke-linejoin="round" stroke-miterlimit="10" fill="#B1A55B"/><rect x="3520.5" y="2644.5" width="281" height="733" stroke="#1C334E" stroke-width="9.16667" stroke-linejoin="round" stroke-miterlimit="10" fill="#B1A55B"/><rect x="3831.5" y="2644.5" width="281" height="733" stroke="#1C334E" stroke-width="9.16667" stroke-linejoin="round" stroke-miterlimit="10" fill="#B1A55B"/></g></svg>