<svg width="1615" height="2475" xmlns="http://www.w3.org/2000/svg" xmlns:xlink="http://www.w3.org/1999/xlink" xml:space="preserve" overflow="hidden"><defs><clipPath id="clip0"><rect x="790" y="976" width="1615" height="2475"/></clipPath></defs><g clip-path="url(#clip0)" transform="translate(-790 -976)"><path d="M0 0 54.0008 0 54.0008 112.091 403 112.091 403 162 0 162Z" fill="#F79646" fill-rule="evenodd" transform="matrix(1 0 0 -1 791 1138)"/><path d="M1591 1138 1534.54 1138 1534.54 1025.91 1186 1025.91 1186 976 1591 976Z" fill="#F79646" fill-rule="evenodd"/><rect x="902.5" y="1043.5" width="280" height="734" stroke="#1C334E" stroke-width="9.16667" stroke-linejoin="round" stroke-miterlimit="10" fill="#B1A55B"/><rect x="1212.5" y="1043.5" width="280" height="734" stroke="#1C334E" stroke-width="9.16667" stroke-linejoin="round" stroke-miterlimit="10" fill="#B1A55B"/><path d="M0 0 56.4555 0 56.4555 112.091 405 112.091 405 162 0 162Z" fill="#F79646" fill-rule="evenodd" transform="matrix(1 0 0 -1 791 1943)"/><path d="M1593 1943 1536.54 1943 1536.54 1830.91 1188 1830.91 1188 1781 1593 1781Z" fill="#F79646" fill-rule="evenodd"/><rect x="794.5" y="1143.5" width="63.9999" height="635" stroke="#000000" stroke-width="9.16667" stroke-linejoin="round" stroke-miterlimit="10"/><rect x="1512.5" y="1142.5" width="71.0001" height="636" stroke="#000000" stroke-width="9.16667" stroke-linejoin="round" stroke-miterlimit="10"/><path d="M0 0 54.0009 0 54.0009 112.091 403 112.091 403 162 0 162Z" fill="#F79646" fill-rule="evenodd" transform="matrix(1 0 0 -1 1590 1138)"/><path d="M2390 1138 2333.54 1138 2333.54 1025.91 1985 1025.91 1985 976 2390 976Z" fill="#F79646" fill-rule="evenodd"/><rect x="1701.5" y="1043.5" width="280" height="734" stroke="#1C334E" stroke-width="9.16667" stroke-linejoin="round" stroke-miterlimit="10" fill="#B1A55B"/><rect x="2011.5" y="1043.5" width="280" height="734" stroke="#1C334E" stroke-width="9.16667" stroke-linejoin="round" stroke-miterlimit="10" fill="#B1A55B"/><path d="M0 0 56.4553 0 56.4553 112.091 404 112.091 404 162 0 162Z" fill="#F79646" fill-rule="evenodd" transform="matrix(1 0 0 -1 1590 1943)"/><path d="M2392 1943 2335.54 1943 2335.54 1830.91 1987 1830.91 1987 1781 2392 1781Z" fill="#F79646" fill-rule="evenodd"/><rect x="1593.5" y="1143.5" width="63.9999" height="635" stroke="#000000" stroke-width="9.16667" stroke-linejoin="round" stroke-miterlimit="10"/><rect x="2314.5" y="1142.5" width="68" height="636" stroke="#000000" stroke-width="9.16667" stroke-linejoin="round" stroke-miterlimit="10"/><rect x="905.5" y="1845.5" width="280" height="733" stroke="#1C334E" stroke-width="9.16667" stroke-linejoin="round" stroke-miterlimit="10" fill="#B1A55B"/><rect x="1215.5" y="1845.5" width="280" height="733" stroke="#1C334E" stroke-width="9.16667" stroke-linejoin="round" stroke-miterlimit="10" fill="#B1A55B"/><path d="M0 0 56.4555 0 56.4555 112.091 405 112.091 405 162 0 162Z" fill="#F79646" fill-rule="evenodd" transform="matrix(1 0 0 -1 794 2745)"/><path d="M1596 2745 1539.54 2745 1539.54 2632.91 1191 2632.91 1191 2583 1596 2583Z" fill="#F79646" fill-rule="evenodd"/><rect x="798.5" y="1944.5" width="63.9999" height="635" stroke="#000000" stroke-width="9.16667" stroke-linejoin="round" stroke-miterlimit="10"/><rect x="1519.5" y="1945.5" width="68.0001" height="634" stroke="#000000" stroke-width="9.16667" stroke-linejoin="round" stroke-miterlimit="10"/><rect x="1704.5" y="1845.5" width="280" height="733" stroke="#1C334E" stroke-width="9.16667" stroke-linejoin="round" stroke-miterlimit="10" fill="#B1A55B"/><rect x="2014.5" y="1845.5" width="280" height="733" stroke="#1C334E" stroke-width="9.16667" stroke-linejoin="round" stroke-miterlimit="10" fill="#B1A55B"/><path d="M0 0 56.4555 0 56.4555 112.091 405 112.091 405 162 0 162Z" fill="#F79646" fill-rule="evenodd" transform="matrix(1 0 0 -1 1593 2745)"/><path d="M2395 2745 2338.54 2745 2338.54 2632.91 1990 2632.91 1990 2583 2395 2583Z" fill="#F79646" fill-rule="evenodd"/><rect x="1596.5" y="1946.5" width="65" height="632" stroke="#000000" stroke-width="9.16667" stroke-linejoin="round" stroke-miterlimit="10"/><rect x="2318.5" y="1941.5" width="68" height="638" stroke="#000000" stroke-width="9.16667" stroke-linejoin="round" stroke-miterlimit="10"/><rect x="912.5" y="2647.5" width="280" height="733" stroke="#1C334E" stroke-width="9.16667" stroke-linejoin="round" stroke-miterlimit="10" fill="#B1A55B"/><rect x="1222.5" y="2647.5" width="280" height="733" stroke="#1C334E" stroke-width="9.16667" stroke-linejoin="round" stroke-miterlimit="10" fill="#B1A55B"/><rect x="797.5" y="2746.5" width="71.0002" height="635" stroke="#000000" stroke-width="9.16667" stroke-linejoin="round" stroke-miterlimit="10"/><rect x="1526.5" y="2747.5" width="67" height="634" stroke="#000000" stroke-width="9.16667" stroke-linejoin="round" stroke-miterlimit="10"/><rect x="1711.5" y="2647.5" width="280" height="733" stroke="#1C334E" stroke-width="9.16667" stroke-linejoin="round" stroke-miterlimit="10" fill="#B1A55B"/><rect x="2021.5" y="2647.5" width="280" height="733" stroke="#1C334E" stroke-width="9.16667" stroke-linejoin="round" stroke-miterlimit="10" fill="#B1A55B"/><rect x="1600.5" y="2748.5" width="67" height="633" stroke="#000000" stroke-width="9.16667" stroke-linejoin="round" stroke-miterlimit="10"/><rect x="2325.5" y="2747.5" width="67" height="634" stroke="#000000" stroke-width="9.16667" stroke-linejoin="round" stroke-miterlimit="10"/><rect x="797" y="3383" width="1608" height="68" fill="#F79646"/></g></svg>