<svg width="2962" height="1844" xmlns="http://www.w3.org/2000/svg" xmlns:xlink="http://www.w3.org/1999/xlink" xml:space="preserve" overflow="hidden"><g transform="translate(-2925 -1061)"><path d="M5651.5 2776C5651.5 2712.21 5703.21 2660.5 5767 2660.5 5830.79 2660.5 5882.5 2712.21 5882.5 2776 5882.5 2839.79 5830.79 2891.5 5767 2891.5 5703.21 2891.5 5651.5 2839.79 5651.5 2776Z" stroke="#1C334E" stroke-width="9.16667" stroke-linejoin="round" stroke-miterlimit="10" fill="#FFFFFF" fill-rule="evenodd"/><path d="M5328.5 2782C5328.5 2718.21 5380.21 2666.5 5444 2666.5 5507.79 2666.5 5559.5 2718.21 5559.5 2782 5559.5 2845.79 5507.79 2897.5 5444 2897.5 5380.21 2897.5 5328.5 2845.79 5328.5 2782Z" stroke="#1C334E" stroke-width="9.16667" stroke-linejoin="round" stroke-miterlimit="10" fill="#FFFFFF" fill-rule="evenodd"/><path d="M4843.5 2783C4843.5 2719.21 4895.21 2667.5 4959 2667.5 5022.79 2667.5 5074.5 2719.21 5074.5 2783 5074.5 2846.79 5022.79 2898.5 4959 2898.5 4895.21 2898.5 4843.5 2846.79 4843.5 2783Z" stroke="#1C334E" stroke-width="9.16667" stroke-linejoin="round" stroke-miterlimit="10" fill="#FFFFFF" fill-rule="evenodd"/><path d="M4535.5 2779C4535.5 2715.21 4586.99 2663.5 4650.5 2663.5 4714.01 2663.5 4765.5 2715.21 4765.5 2779 4765.5 2842.79 4714.01 2894.5 4650.5 2894.5 4586.99 2894.5 4535.5 2842.79 4535.5 2779Z" stroke="#1C334E" stroke-width="9.16667" stroke-linejoin="round" stroke-miterlimit="10" fill="#FFFFFF" fill-rule="evenodd"/><path d="M4035.5 2784.5C4035.5 2720.44 4086.99 2668.5 4150.5 2668.5 4214.01 2668.5 4265.5 2720.44 4265.5 2784.5 4265.5 2848.56 4214.01 2900.5 4150.5 2900.5 4086.99 2900.5 4035.5 2848.56 4035.5 2784.5Z" stroke="#1C334E" stroke-width="9.16667" stroke-linejoin="round" stroke-miterlimit="10" fill="#FFFFFF" fill-rule="evenodd"/><path d="M3741.5 2776C3741.5 2712.21 3793.21 2660.5 3857 2660.5 3920.79 2660.5 3972.5 2712.21 3972.5 2776 3972.5 2839.79 3920.79 2891.5 3857 2891.5 3793.21 2891.5 3741.5 2839.79 3741.5 2776Z" stroke="#1C334E" stroke-width="9.16667" stroke-linejoin="round" stroke-miterlimit="10" fill="#FFFFFF" fill-rule="evenodd"/><path d="M3246.5 2777C3246.5 2713.21 3298.21 2661.5 3362 2661.5 3425.79 2661.5 3477.5 2713.21 3477.5 2777 3477.5 2840.79 3425.79 2892.5 3362 2892.5 3298.21 2892.5 3246.5 2840.79 3246.5 2777Z" stroke="#1C334E" stroke-width="9.16667" stroke-linejoin="round" stroke-miterlimit="10" fill="#FFFFFF" fill-rule="evenodd"/><path d="M2943.5 2783C2943.5 2719.21 2994.99 2667.5 3058.5 2667.5 3122.01 2667.5 3173.5 2719.21 3173.5 2783 3173.5 2846.79 3122.01 2898.5 3058.5 2898.5 2994.99 2898.5 2943.5 2846.79 2943.5 2783Z" stroke="#1C334E" stroke-width="9.16667" stroke-linejoin="round" stroke-miterlimit="10" fill="#FFFFFF" fill-rule="evenodd"/><path d="M5639.5 1988C5639.5 1924.21 5691.21 1872.5 5755 1872.5 5818.79 1872.5 5870.5 1924.21 5870.5 1988 5870.5 2051.79 5818.79 2103.5 5755 2103.5 5691.21 2103.5 5639.5 2051.79 5639.5 1988Z" stroke="#1C334E" stroke-width="9.16667" stroke-linejoin="round" stroke-miterlimit="10" fill="#FFFFFF" fill-rule="evenodd"/><path d="M5336.5 1989C5336.5 1925.21 5388.21 1873.5 5452 1873.5 5515.79 1873.5 5567.5 1925.21 5567.5 1989 5567.5 2052.79 5515.79 2104.5 5452 2104.5 5388.21 2104.5 5336.5 2052.79 5336.5 1989Z" stroke="#1C334E" stroke-width="9.16667" stroke-linejoin="round" stroke-miterlimit="10" fill="#FFFFFF" fill-rule="evenodd"/><path d="M4836.5 1990C4836.5 1926.21 4888.21 1874.5 4952 1874.5 5015.79 1874.5 5067.5 1926.21 5067.5 1990 5067.5 2053.79 5015.79 2105.5 4952 2105.5 4888.21 2105.5 4836.5 2053.79 4836.5 1990Z" stroke="#1C334E" stroke-width="9.16667" stroke-linejoin="round" stroke-miterlimit="10" fill="#FFFFFF" fill-rule="evenodd"/><path d="M4528.5 1996C4528.5 1932.21 4579.99 1880.5 4643.5 1880.5 4707.01 1880.5 4758.5 1932.21 4758.5 1996 4758.5 2059.79 4707.01 2111.5 4643.5 2111.5 4579.99 2111.5 4528.5 2059.79 4528.5 1996Z" stroke="#1C334E" stroke-width="9.16667" stroke-linejoin="round" stroke-miterlimit="10" fill="#FFFFFF" fill-rule="evenodd"/><path d="M4052.5 1992C4052.5 1928.21 4104.21 1876.5 4168 1876.5 4231.79 1876.5 4283.5 1928.21 4283.5 1992 4283.5 2055.79 4231.79 2107.5 4168 2107.5 4104.21 2107.5 4052.5 2055.79 4052.5 1992Z" stroke="#1C334E" stroke-width="9.16667" stroke-linejoin="round" stroke-miterlimit="10" fill="#FFFFFF" fill-rule="evenodd"/><path d="M3724.5 1978C3724.5 1914.21 3776.21 1862.5 3840 1862.5 3903.79 1862.5 3955.5 1914.21 3955.5 1978 3955.5 2041.79 3903.79 2093.5 3840 2093.5 3776.21 2093.5 3724.5 2041.79 3724.5 1978Z" stroke="#1C334E" stroke-width="9.16667" stroke-linejoin="round" stroke-miterlimit="10" fill="#FFFFFF" fill-rule="evenodd"/><path d="M3229.5 1979C3229.5 1915.21 3281.21 1863.5 3345 1863.5 3408.79 1863.5 3460.5 1915.21 3460.5 1979 3460.5 2042.79 3408.79 2094.5 3345 2094.5 3281.21 2094.5 3229.5 2042.79 3229.5 1979Z" stroke="#1C334E" stroke-width="9.16667" stroke-linejoin="round" stroke-miterlimit="10" fill="#FFFFFF" fill-rule="evenodd"/><path d="M2931.5 1975C2931.5 1911.21 2983.21 1859.5 3047 1859.5 3110.79 1859.5 3162.5 1911.21 3162.5 1975 3162.5 2038.79 3110.79 2090.5 3047 2090.5 2983.21 2090.5 2931.5 2038.79 2931.5 1975Z" stroke="#1C334E" stroke-width="9.16667" stroke-linejoin="round" stroke-miterlimit="10" fill="#FFFFFF" fill-rule="evenodd"/><path d="M5628.5 1190.5C5628.5 1126.44 5679.99 1074.5 5743.5 1074.5 5807.01 1074.5 5858.5 1126.44 5858.5 1190.5 5858.5 1254.57 5807.01 1306.5 5743.5 1306.5 5679.99 1306.5 5628.5 1254.57 5628.5 1190.5Z" stroke="#1C334E" stroke-width="9.16667" stroke-linejoin="round" stroke-miterlimit="10" fill="#FFFFFF" fill-rule="evenodd"/><path d="M5324.5 1196.5C5324.5 1132.43 5376.21 1080.5 5440 1080.5 5503.79 1080.5 5555.5 1132.43 5555.5 1196.5 5555.5 1260.56 5503.79 1312.5 5440 1312.5 5376.21 1312.5 5324.5 1260.56 5324.5 1196.5Z" stroke="#1C334E" stroke-width="9.16667" stroke-linejoin="round" stroke-miterlimit="10" fill="#FFFFFF" fill-rule="evenodd"/><path d="M4844.5 1192.5C4844.5 1128.44 4896.21 1076.5 4960 1076.5 5023.79 1076.5 5075.5 1128.44 5075.5 1192.5 5075.5 1256.57 5023.79 1308.5 4960 1308.5 4896.21 1308.5 4844.5 1256.57 4844.5 1192.5Z" stroke="#1C334E" stroke-width="9.16667" stroke-linejoin="round" stroke-miterlimit="10" fill="#FFFFFF" fill-rule="evenodd"/><path d="M4531.5 1188.5C4531.5 1124.43 4582.99 1072.5 4646.5 1072.5 4710.01 1072.5 4761.5 1124.43 4761.5 1188.5 4761.5 1252.57 4710.01 1304.5 4646.5 1304.5 4582.99 1304.5 4531.5 1252.57 4531.5 1188.5Z" stroke="#1C334E" stroke-width="9.16667" stroke-linejoin="round" stroke-miterlimit="10" fill="#FFFFFF" fill-rule="evenodd"/><path d="M4031.5 1185C4031.5 1121.21 4083.21 1069.5 4147 1069.5 4210.79 1069.5 4262.5 1121.21 4262.5 1185 4262.5 1248.79 4210.79 1300.5 4147 1300.5 4083.21 1300.5 4031.5 1248.79 4031.5 1185Z" stroke="#1C334E" stroke-width="9.16667" stroke-linejoin="round" stroke-miterlimit="10" fill="#FFFFFF" fill-rule="evenodd"/><path d="M3732.5 1181C3732.5 1117.21 3784.21 1065.5 3848 1065.5 3911.79 1065.5 3963.5 1117.21 3963.5 1181 3963.5 1244.79 3911.79 1296.5 3848 1296.5 3784.21 1296.5 3732.5 1244.79 3732.5 1181Z" stroke="#1C334E" stroke-width="9.16667" stroke-linejoin="round" stroke-miterlimit="10" fill="#FFFFFF" fill-rule="evenodd"/><path d="M3232.5 1187C3232.5 1123.21 3284.21 1071.5 3348 1071.5 3411.79 1071.5 3463.5 1123.21 3463.5 1187 3463.5 1250.79 3411.79 1302.5 3348 1302.5 3284.21 1302.5 3232.5 1250.79 3232.5 1187Z" stroke="#1C334E" stroke-width="9.16667" stroke-linejoin="round" stroke-miterlimit="10" fill="#FFFFFF" fill-rule="evenodd"/><path d="M2929.5 1197.5C2929.5 1133.43 2981.21 1081.5 3045 1081.5 3108.79 1081.5 3160.5 1133.43 3160.5 1197.5 3160.5 1261.56 3108.79 1313.5 3045 1313.5 2981.21 1313.5 2929.5 1261.56 2929.5 1197.5Z" stroke="#1C334E" stroke-width="9.16667" stroke-linejoin="round" stroke-miterlimit="10" fill="#FFFFFF" fill-rule="evenodd"/></g></svg>