<svg width="3216" height="2475" xmlns="http://www.w3.org/2000/svg" xmlns:xlink="http://www.w3.org/1999/xlink" xml:space="preserve" overflow="hidden"><defs><clipPath id="clip0"><rect x="2597" y="973" width="3216" height="2475"/></clipPath></defs><g clip-path="url(#clip0)" transform="translate(-2597 -973)"><path d="M0 0 54.0009 0 54.0009 112.091 403 112.091 403 162 0 162Z" fill="#F79646" fill-rule="evenodd" transform="matrix(1 0 0 -1 4199 1135)"/><path d="M4999 1135 4942.54 1135 4942.54 1022.91 4595 1022.91 4595 973 4999 973Z" fill="#F79646" fill-rule="evenodd"/><rect x="4310.5" y="1040.5" width="280" height="733" stroke="#1C334E" stroke-width="9.16667" stroke-linejoin="round" stroke-miterlimit="10" fill="#B1A55B"/><rect x="4620.5" y="1040.5" width="280" height="733" stroke="#1C334E" stroke-width="9.16667" stroke-linejoin="round" stroke-miterlimit="10" fill="#B1A55B"/><path d="M0 0 56.4555 0 56.4555 112.091 405 112.091 405 162 0 162Z" fill="#F79646" fill-rule="evenodd" transform="matrix(1 0 0 -1 4199 1940)"/><path d="M5001 1940 4944.54 1940 4944.54 1827.91 4596 1827.91 4596 1778 5001 1778Z" fill="#F79646" fill-rule="evenodd"/><rect x="4203.5" y="1139.5" width="64.0005" height="635" stroke="#000000" stroke-width="9.16667" stroke-linejoin="round" stroke-miterlimit="10"/><rect x="4920.5" y="1138.5" width="71" height="636" stroke="#000000" stroke-width="9.16667" stroke-linejoin="round" stroke-miterlimit="10"/><path d="M0 0 54.0008 0 54.0008 112.091 403 112.091 403 162 0 162Z" fill="#F79646" fill-rule="evenodd" transform="matrix(1 0 0 -1 4998 1135)"/><path d="M5798 1135 5741.54 1135 5741.54 1022.91 5393 1022.91 5393 973 5798 973Z" fill="#F79646" fill-rule="evenodd"/><rect x="5109.5" y="1040.5" width="279" height="733" stroke="#1C334E" stroke-width="9.16667" stroke-linejoin="round" stroke-miterlimit="10" fill="#B1A55B"/><rect x="5419.5" y="1040.5" width="279" height="733" stroke="#1C334E" stroke-width="9.16667" stroke-linejoin="round" stroke-miterlimit="10" fill="#B1A55B"/><path d="M0 0 56.4553 0 56.4553 112.091 404 112.091 404 161.999 0 161.999Z" fill="#F79646" fill-rule="evenodd" transform="matrix(1 0 0 -1 4998 1940)"/><path d="M5799 1940 5742.54 1940 5742.54 1827.91 5395 1827.91 5395 1778 5799 1778Z" fill="#F79646" fill-rule="evenodd"/><rect x="5001.5" y="1139.5" width="64" height="635" stroke="#000000" stroke-width="9.16667" stroke-linejoin="round" stroke-miterlimit="10"/><rect x="5722.5" y="1138.5" width="68" height="636" stroke="#000000" stroke-width="9.16667" stroke-linejoin="round" stroke-miterlimit="10"/><rect x="4314.5" y="1842.5" width="279" height="733" stroke="#1C334E" stroke-width="9.16667" stroke-linejoin="round" stroke-miterlimit="10" fill="#B1A55B"/><rect x="4624.5" y="1842.5" width="279" height="733" stroke="#1C334E" stroke-width="9.16667" stroke-linejoin="round" stroke-miterlimit="10" fill="#B1A55B"/><path d="M0 0 56.4553 0 56.4553 112.091 404 112.091 404 161.999 0 161.999Z" fill="#F79646" fill-rule="evenodd" transform="matrix(1 0 0 -1 4203 2742)"/><path d="M5004 2742 4947.54 2742 4947.54 2629.91 4600 2629.91 4600 2580 5004 2580Z" fill="#F79646" fill-rule="evenodd"/><rect x="4206.5" y="1941.5" width="64" height="635" stroke="#000000" stroke-width="9.16667" stroke-linejoin="round" stroke-miterlimit="10"/><rect x="4927.5" y="1941.5" width="67.9995" height="635" stroke="#000000" stroke-width="9.16667" stroke-linejoin="round" stroke-miterlimit="10"/><rect x="5112.5" y="1842.5" width="280" height="733" stroke="#1C334E" stroke-width="9.16667" stroke-linejoin="round" stroke-miterlimit="10" fill="#B1A55B"/><rect x="5422.5" y="1842.5" width="280" height="733" stroke="#1C334E" stroke-width="9.16667" stroke-linejoin="round" stroke-miterlimit="10" fill="#B1A55B"/><path d="M0 0 56.4556 0 56.4556 112.091 405 112.091 405 162 0 162Z" fill="#F79646" fill-rule="evenodd" transform="matrix(1 0 0 -1 5001 2742)"/><path d="M5803 2742 5746.54 2742 5746.54 2629.91 5398 2629.91 5398 2580 5803 2580Z" fill="#F79646" fill-rule="evenodd"/><rect x="5004.5" y="1942.5" width="65" height="633" stroke="#000000" stroke-width="9.16667" stroke-linejoin="round" stroke-miterlimit="10"/><rect x="5725.5" y="1937.5" width="68" height="639" stroke="#000000" stroke-width="9.16667" stroke-linejoin="round" stroke-miterlimit="10"/><rect x="4320.5" y="2644.5" width="280" height="733" stroke="#1C334E" stroke-width="9.16667" stroke-linejoin="round" stroke-miterlimit="10" fill="#B1A55B"/><rect x="4630.5" y="2644.5" width="280" height="733" stroke="#1C334E" stroke-width="9.16667" stroke-linejoin="round" stroke-miterlimit="10" fill="#B1A55B"/><rect x="4206.5" y="2743.5" width="71" height="635" stroke="#000000" stroke-width="9.16667" stroke-linejoin="round" stroke-miterlimit="10"/><rect x="4934.5" y="2743.5" width="67" height="635" stroke="#000000" stroke-width="9.16667" stroke-linejoin="round" stroke-miterlimit="10"/><rect x="5119.5" y="2644.5" width="279" height="733" stroke="#1C334E" stroke-width="9.16667" stroke-linejoin="round" stroke-miterlimit="10" fill="#B1A55B"/><rect x="5429.5" y="2644.5" width="279" height="733" stroke="#1C334E" stroke-width="9.16667" stroke-linejoin="round" stroke-miterlimit="10" fill="#B1A55B"/><rect x="5008.5" y="2744.5" width="67" height="634" stroke="#000000" stroke-width="9.16667" stroke-linejoin="round" stroke-miterlimit="10"/><rect x="5732.5" y="2743.5" width="68" height="635" stroke="#000000" stroke-width="9.16667" stroke-linejoin="round" stroke-miterlimit="10"/><rect x="4206" y="3379" width="1607" height="69" fill="#F79646"/><path d="M0 0 54.001 0 54.001 112.091 404 112.091 404 162 0 162Z" fill="#F79646" fill-rule="evenodd" transform="matrix(1 0 0 -1 2598 1135)"/><path d="M3400 1135 3343.54 1135 3343.54 1022.91 2994 1022.91 2994 973 3400 973Z" fill="#F79646" fill-rule="evenodd"/><rect x="2709.5" y="1040.5" width="281" height="733" stroke="#1C334E" stroke-width="9.16667" stroke-linejoin="round" stroke-miterlimit="10" fill="#B1A55B"/><rect x="3020.5" y="1040.5" width="281" height="733" stroke="#1C334E" stroke-width="9.16667" stroke-linejoin="round" stroke-miterlimit="10" fill="#B1A55B"/><path d="M0 0 56.455 0 56.455 112.091 406 112.091 406 162 0 162Z" fill="#F79646" fill-rule="evenodd" transform="matrix(1 0 0 -1 2598 1940)"/><path d="M3402 1940 3345.54 1940 3345.54 1827.91 2996 1827.91 2996 1778 3402 1778Z" fill="#F79646" fill-rule="evenodd"/><rect x="2601.5" y="1139.5" width="65" height="635" stroke="#000000" stroke-width="9.16667" stroke-linejoin="round" stroke-miterlimit="10"/><rect x="3321.5" y="1138.5" width="70.9998" height="636" stroke="#000000" stroke-width="9.16667" stroke-linejoin="round" stroke-miterlimit="10"/><path d="M0 0 54.001 0 54.001 112.091 404 112.091 404 162 0 162Z" fill="#F79646" fill-rule="evenodd" transform="matrix(1 0 0 -1 3399 1135)"/><path d="M4201 1135 4144.54 1135 4144.54 1022.91 3795 1022.91 3795 973 4201 973Z" fill="#F79646" fill-rule="evenodd"/><rect x="3510.5" y="1040.5" width="281" height="733" stroke="#1C334E" stroke-width="9.16667" stroke-linejoin="round" stroke-miterlimit="10" fill="#B1A55B"/><rect x="3821.5" y="1040.5" width="280" height="733" stroke="#1C334E" stroke-width="9.16667" stroke-linejoin="round" stroke-miterlimit="10" fill="#B1A55B"/><path d="M0 0 56.4555 0 56.4555 112.091 405 112.091 405 162 0 162Z" fill="#F79646" fill-rule="evenodd" transform="matrix(1 0 0 -1 3399 1940)"/><path d="M4203 1940 4146.54 1940 4146.54 1827.91 3797 1827.91 3797 1778 4203 1778Z" fill="#F79646" fill-rule="evenodd"/><rect x="3402.5" y="1139.5" width="64" height="635" stroke="#000000" stroke-width="9.16667" stroke-linejoin="round" stroke-miterlimit="10"/><rect x="4125.5" y="1138.5" width="68" height="636" stroke="#000000" stroke-width="9.16667" stroke-linejoin="round" stroke-miterlimit="10"/><rect x="2713.5" y="1842.5" width="280" height="733" stroke="#1C334E" stroke-width="9.16667" stroke-linejoin="round" stroke-miterlimit="10" fill="#B1A55B"/><rect x="3024.5" y="1842.5" width="280" height="733" stroke="#1C334E" stroke-width="9.16667" stroke-linejoin="round" stroke-miterlimit="10" fill="#B1A55B"/><path d="M0 0 56.455 0 56.455 112.091 406 112.091 406 162 0 162Z" fill="#F79646" fill-rule="evenodd" transform="matrix(1 0 0 -1 2601 2742)"/><path d="M3405 2742 3348.54 2742 3348.54 2629.91 2999 2629.91 2999 2580 3405 2580Z" fill="#F79646" fill-rule="evenodd"/><rect x="2605.5" y="1941.5" width="64" height="635" stroke="#000000" stroke-width="9.16667" stroke-linejoin="round" stroke-miterlimit="10"/><rect x="3328.5" y="1941.5" width="68" height="635" stroke="#000000" stroke-width="9.16667" stroke-linejoin="round" stroke-miterlimit="10"/><rect x="3513.5" y="1842.5" width="281" height="733" stroke="#1C334E" stroke-width="9.16667" stroke-linejoin="round" stroke-miterlimit="10" fill="#B1A55B"/><rect x="3824.5" y="1842.5" width="281" height="733" stroke="#1C334E" stroke-width="9.16667" stroke-linejoin="round" stroke-miterlimit="10" fill="#B1A55B"/><path d="M0 0 56.455 0 56.455 112.091 406 112.091 406 162 0 162Z" fill="#F79646" fill-rule="evenodd" transform="matrix(1 0 0 -1 3402 2742)"/><path d="M4206 2742 4149.54 2742 4149.54 2629.91 3800 2629.91 3800 2580 4206 2580Z" fill="#F79646" fill-rule="evenodd"/><rect x="3405.5" y="1942.5" width="65" height="633" stroke="#000000" stroke-width="9.16667" stroke-linejoin="round" stroke-miterlimit="10"/><rect x="4128.5" y="1937.5" width="69" height="639" stroke="#000000" stroke-width="9.16667" stroke-linejoin="round" stroke-miterlimit="10"/><rect x="2719.5" y="2644.5" width="281" height="733" stroke="#1C334E" stroke-width="9.16667" stroke-linejoin="round" stroke-miterlimit="10" fill="#B1A55B"/><rect x="3030.5" y="2644.5" width="281" height="733" stroke="#1C334E" stroke-width="9.16667" stroke-linejoin="round" stroke-miterlimit="10" fill="#B1A55B"/><rect x="2605.5" y="2743.5" width="70.9998" height="635" stroke="#000000" stroke-width="9.16667" stroke-linejoin="round" stroke-miterlimit="10"/><rect x="3335.5" y="2743.5" width="68" height="635" stroke="#000000" stroke-width="9.16667" stroke-linejoin="round" stroke-miterlimit="10"/><rect x="3520.5" y="2644.5" width="281" height="733" stroke="#1C334E" stroke-width="9.16667" stroke-linejoin="round" stroke-miterlimit="10" fill="#B1A55B"/><rect x="3831.5" y="2644.5" width="281" height="733" stroke="#1C334E" stroke-width="9.16667" stroke-linejoin="round" stroke-miterlimit="10" fill="#B1A55B"/><rect x="3409.5" y="2744.5" width="67.9998" height="634" stroke="#000000" stroke-width="9.16667" stroke-linejoin="round" stroke-miterlimit="10"/><rect x="4136.5" y="2743.5" width="67" height="635" stroke="#000000" stroke-width="9.16667" stroke-linejoin="round" stroke-miterlimit="10"/><rect x="2605" y="3379" width="1611" height="69" fill="#F79646"/><path d="M5474.5 2771.5C5474.5 2730.63 5508.53 2697.5 5550.5 2697.5 5592.47 2697.5 5626.5 2730.63 5626.5 2771.5 5626.5 2812.37 5592.47 2845.5 5550.5 2845.5 5508.53 2845.5 5474.5 2812.37 5474.5 2771.5Z" stroke="#1C334E" stroke-width="9.16667" stroke-linejoin="round" stroke-miterlimit="10" fill="#FFFFFF" fill-rule="evenodd"/><path d="M5196.5 2777.5C5196.5 2736.63 5230.3 2703.5 5272 2703.5 5313.7 2703.5 5347.5 2736.63 5347.5 2777.5 5347.5 2818.37 5313.7 2851.5 5272 2851.5 5230.3 2851.5 5196.5 2818.37 5196.5 2777.5Z" stroke="#1C334E" stroke-width="9.16667" stroke-linejoin="round" stroke-miterlimit="10" fill="#FFFFFF" fill-rule="evenodd"/><path d="M4686.5 2788.5C4686.5 2747.63 4720.3 2714.5 4762 2714.5 4803.7 2714.5 4837.5 2747.63 4837.5 2788.5 4837.5 2829.37 4803.7 2862.5 4762 2862.5 4720.3 2862.5 4686.5 2829.37 4686.5 2788.5Z" stroke="#1C334E" stroke-width="9.16667" stroke-linejoin="round" stroke-miterlimit="10" fill="#FFFFFF" fill-rule="evenodd"/><path d="M4392.5 2789.5C4392.5 2748.63 4426.3 2715.5 4468 2715.5 4509.7 2715.5 4543.5 2748.63 4543.5 2789.5 4543.5 2830.37 4509.7 2863.5 4468 2863.5 4426.3 2863.5 4392.5 2830.37 4392.5 2789.5Z" stroke="#1C334E" stroke-width="9.16667" stroke-linejoin="round" stroke-miterlimit="10" fill="#FFFFFF" fill-rule="evenodd"/><path d="M3892.5 2775.5C3892.5 2734.63 3926.3 2701.5 3968 2701.5 4009.7 2701.5 4043.5 2734.63 4043.5 2775.5 4043.5 2816.37 4009.7 2849.5 3968 2849.5 3926.3 2849.5 3892.5 2816.37 3892.5 2775.5Z" stroke="#1C334E" stroke-width="9.16667" stroke-linejoin="round" stroke-miterlimit="10" fill="#FFFFFF" fill-rule="evenodd"/><path d="M3584.5 2786.5C3584.5 2745.63 3618.75 2712.5 3661 2712.5 3703.25 2712.5 3737.5 2745.63 3737.5 2786.5 3737.5 2827.37 3703.25 2860.5 3661 2860.5 3618.75 2860.5 3584.5 2827.37 3584.5 2786.5Z" stroke="#1C334E" stroke-width="9.16667" stroke-linejoin="round" stroke-miterlimit="10" fill="#FFFFFF" fill-rule="evenodd"/><path d="M3089.5 2777.5C3089.5 2736.63 3123.75 2703.5 3166 2703.5 3208.25 2703.5 3242.5 2736.63 3242.5 2777.5 3242.5 2818.37 3208.25 2851.5 3166 2851.5 3123.75 2851.5 3089.5 2818.37 3089.5 2777.5Z" stroke="#1C334E" stroke-width="9.16667" stroke-linejoin="round" stroke-miterlimit="10" fill="#FFFFFF" fill-rule="evenodd"/><path d="M2780.5 2769C2780.5 2728.41 2814.75 2695.5 2857 2695.5 2899.25 2695.5 2933.5 2728.41 2933.5 2769 2933.5 2809.59 2899.25 2842.5 2857 2842.5 2814.75 2842.5 2780.5 2809.59 2780.5 2769Z" stroke="#1C334E" stroke-width="9.16667" stroke-linejoin="round" stroke-miterlimit="10" fill="#FFFFFF" fill-rule="evenodd"/><path d="M5479.5 1974.5C5479.5 1933.63 5513.3 1900.5 5555 1900.5 5596.7 1900.5 5630.5 1933.63 5630.5 1974.5 5630.5 2015.37 5596.7 2048.5 5555 2048.5 5513.3 2048.5 5479.5 2015.37 5479.5 1974.5Z" stroke="#1C334E" stroke-width="9.16667" stroke-linejoin="round" stroke-miterlimit="10" fill="#FFFFFF" fill-rule="evenodd"/><path d="M5180.5 1975.5C5180.5 1934.63 5214.53 1901.5 5256.5 1901.5 5298.47 1901.5 5332.5 1934.63 5332.5 1975.5 5332.5 2016.37 5298.47 2049.5 5256.5 2049.5 5214.53 2049.5 5180.5 2016.37 5180.5 1975.5Z" stroke="#1C334E" stroke-width="9.16667" stroke-linejoin="round" stroke-miterlimit="10" fill="#FFFFFF" fill-rule="evenodd"/><path d="M5471.5 1175.5C5471.5 1134.63 5505.3 1101.5 5547 1101.5 5588.7 1101.5 5622.5 1134.63 5622.5 1175.5 5622.5 1216.37 5588.7 1249.5 5547 1249.5 5505.3 1249.5 5471.5 1216.37 5471.5 1175.5Z" stroke="#1C334E" stroke-width="9.16667" stroke-linejoin="round" stroke-miterlimit="10" fill="#FFFFFF" fill-rule="evenodd"/><path d="M5177.5 1172C5177.5 1131.41 5211.53 1098.5 5253.5 1098.5 5295.47 1098.5 5329.5 1131.41 5329.5 1172 5329.5 1212.59 5295.47 1245.5 5253.5 1245.5 5211.53 1245.5 5177.5 1212.59 5177.5 1172Z" stroke="#1C334E" stroke-width="9.16667" stroke-linejoin="round" stroke-miterlimit="10" fill="#FFFFFF" fill-rule="evenodd"/><path d="M4682.5 1968.5C4682.5 1927.63 4716.53 1894.5 4758.5 1894.5 4800.47 1894.5 4834.5 1927.63 4834.5 1968.5 4834.5 2009.37 4800.47 2042.5 4758.5 2042.5 4716.53 2042.5 4682.5 2009.37 4682.5 1968.5Z" stroke="#1C334E" stroke-width="9.16667" stroke-linejoin="round" stroke-miterlimit="10" fill="#FFFFFF" fill-rule="evenodd"/><path d="M4381.5 1968.5C4381.5 1927.63 4415.3 1894.5 4457 1894.5 4498.7 1894.5 4532.5 1927.63 4532.5 1968.5 4532.5 2009.37 4498.7 2042.5 4457 2042.5 4415.3 2042.5 4381.5 2009.37 4381.5 1968.5Z" stroke="#1C334E" stroke-width="9.16667" stroke-linejoin="round" stroke-miterlimit="10" fill="#FFFFFF" fill-rule="evenodd"/><path d="M3891.5 1979.5C3891.5 1938.63 3925.3 1905.5 3967 1905.5 4008.7 1905.5 4042.5 1938.63 4042.5 1979.5 4042.5 2020.37 4008.7 2053.5 3967 2053.5 3925.3 2053.5 3891.5 2020.37 3891.5 1979.5Z" stroke="#1C334E" stroke-width="9.16667" stroke-linejoin="round" stroke-miterlimit="10" fill="#FFFFFF" fill-rule="evenodd"/><path d="M3582.5 1975.5C3582.5 1934.63 3616.53 1901.5 3658.5 1901.5 3700.47 1901.5 3734.5 1934.63 3734.5 1975.5 3734.5 2016.37 3700.47 2049.5 3658.5 2049.5 3616.53 2049.5 3582.5 2016.37 3582.5 1975.5Z" stroke="#1C334E" stroke-width="9.16667" stroke-linejoin="round" stroke-miterlimit="10" fill="#FFFFFF" fill-rule="evenodd"/><path d="M3087.5 1966.5C3087.5 1925.63 3121.53 1892.5 3163.5 1892.5 3205.47 1892.5 3239.5 1925.63 3239.5 1966.5 3239.5 2007.37 3205.47 2040.5 3163.5 2040.5 3121.53 2040.5 3087.5 2007.37 3087.5 1966.5Z" stroke="#1C334E" stroke-width="9.16667" stroke-linejoin="round" stroke-miterlimit="10" fill="#FFFFFF" fill-rule="evenodd"/><path d="M2769.5 1977.5C2769.5 1936.63 2803.3 1903.5 2845 1903.5 2886.7 1903.5 2920.5 1936.63 2920.5 1977.5 2920.5 2018.37 2886.7 2051.5 2845 2051.5 2803.3 2051.5 2769.5 2018.37 2769.5 1977.5Z" stroke="#1C334E" stroke-width="9.16667" stroke-linejoin="round" stroke-miterlimit="10" fill="#FFFFFF" fill-rule="evenodd"/><path d="M4680.5 1158.5C4680.5 1117.63 4714.53 1084.5 4756.5 1084.5 4798.47 1084.5 4832.5 1117.63 4832.5 1158.5 4832.5 1199.37 4798.47 1232.5 4756.5 1232.5 4714.53 1232.5 4680.5 1199.37 4680.5 1158.5Z" stroke="#1C334E" stroke-width="9.16667" stroke-linejoin="round" stroke-miterlimit="10" fill="#FFFFFF" fill-rule="evenodd"/><path d="M4372.5 1169C4372.5 1128.41 4406.3 1095.5 4448 1095.5 4489.7 1095.5 4523.5 1128.41 4523.5 1169 4523.5 1209.59 4489.7 1242.5 4448 1242.5 4406.3 1242.5 4372.5 1209.59 4372.5 1169Z" stroke="#1C334E" stroke-width="9.16667" stroke-linejoin="round" stroke-miterlimit="10" fill="#FFFFFF" fill-rule="evenodd"/><path d="M3872.5 1174.5C3872.5 1133.63 3906.3 1100.5 3948 1100.5 3989.7 1100.5 4023.5 1133.63 4023.5 1174.5 4023.5 1215.37 3989.7 1248.5 3948 1248.5 3906.3 1248.5 3872.5 1215.37 3872.5 1174.5Z" stroke="#1C334E" stroke-width="9.16667" stroke-linejoin="round" stroke-miterlimit="10" fill="#FFFFFF" fill-rule="evenodd"/><path d="M3578.5 1171C3578.5 1130.41 3612.53 1097.5 3654.5 1097.5 3696.47 1097.5 3730.5 1130.41 3730.5 1171 3730.5 1211.59 3696.47 1244.5 3654.5 1244.5 3612.53 1244.5 3578.5 1211.59 3578.5 1171Z" stroke="#1C334E" stroke-width="9.16667" stroke-linejoin="round" stroke-miterlimit="10" fill="#FFFFFF" fill-rule="evenodd"/><path d="M3083.5 1191.5C3083.5 1150.63 3117.53 1117.5 3159.5 1117.5 3201.47 1117.5 3235.5 1150.63 3235.5 1191.5 3235.5 1232.37 3201.47 1265.5 3159.5 1265.5 3117.53 1265.5 3083.5 1232.37 3083.5 1191.5Z" stroke="#1C334E" stroke-width="9.16667" stroke-linejoin="round" stroke-miterlimit="10" fill="#FFFFFF" fill-rule="evenodd"/><path d="M2765.5 1187.5C2765.5 1146.63 2799.3 1113.5 2841 1113.5 2882.7 1113.5 2916.5 1146.63 2916.5 1187.5 2916.5 1228.37 2882.7 1261.5 2841 1261.5 2799.3 1261.5 2765.5 1228.37 2765.5 1187.5Z" stroke="#1C334E" stroke-width="9.16667" stroke-linejoin="round" stroke-miterlimit="10" fill="#FFFFFF" fill-rule="evenodd"/></g></svg>