<svg width="3216" height="2475" xmlns="http://www.w3.org/2000/svg" xmlns:xlink="http://www.w3.org/1999/xlink" xml:space="preserve" overflow="hidden"><defs><clipPath id="clip0"><rect x="2597" y="973" width="3216" height="2475"/></clipPath></defs><g clip-path="url(#clip0)" transform="translate(-2597 -973)"><path d="M0 0 54.0009 0 54.0009 112.091 403 112.091 403 162 0 162Z" fill="#F79646" fill-rule="evenodd" transform="matrix(1 0 0 -1 4199 1135)"/><path d="M4999 1135 4942.54 1135 4942.54 1022.91 4595 1022.91 4595 973 4999 973Z" fill="#F79646" fill-rule="evenodd"/><rect x="4310.5" y="1040.5" width="280" height="733" stroke="#1C334E" stroke-width="9.16667" stroke-linejoin="round" stroke-miterlimit="10" fill="#B1A55B"/><rect x="4620.5" y="1040.5" width="280" height="733" stroke="#1C334E" stroke-width="9.16667" stroke-linejoin="round" stroke-miterlimit="10" fill="#B1A55B"/><path d="M0 0 56.4555 0 56.4555 112.091 405 112.091 405 162 0 162Z" fill="#F79646" fill-rule="evenodd" transform="matrix(1 0 0 -1 4199 1940)"/><path d="M5001 1940 4944.54 1940 4944.54 1827.91 4596 1827.91 4596 1778 5001 1778Z" fill="#F79646" fill-rule="evenodd"/><rect x="4203.5" y="1139.5" width="64.0005" height="635" stroke="#000000" stroke-width="9.16667" stroke-linejoin="round" stroke-miterlimit="10"/><rect x="4920.5" y="1138.5" width="71" height="636" stroke="#000000" stroke-width="9.16667" stroke-linejoin="round" stroke-miterlimit="10"/><path d="M0 0 54.0008 0 54.0008 112.091 403 112.091 403 162 0 162Z" fill="#F79646" fill-rule="evenodd" transform="matrix(1 0 0 -1 4998 1135)"/><path d="M5798 1135 5741.54 1135 5741.54 1022.91 5393 1022.91 5393 973 5798 973Z" fill="#F79646" fill-rule="evenodd"/><rect x="5109.5" y="1040.5" width="279" height="733" stroke="#1C334E" stroke-width="9.16667" stroke-linejoin="round" stroke-miterlimit="10" fill="#B1A55B"/><rect x="5419.5" y="1040.5" width="279" height="733" stroke="#1C334E" stroke-width="9.16667" stroke-linejoin="round" stroke-miterlimit="10" fill="#B1A55B"/><path d="M0 0 56.4553 0 56.4553 112.091 404 112.091 404 161.999 0 161.999Z" fill="#F79646" fill-rule="evenodd" transform="matrix(1 0 0 -1 4998 1940)"/><path d="M5799 1940 5742.54 1940 5742.54 1827.91 5395 1827.91 5395 1778 5799 1778Z" fill="#F79646" fill-rule="evenodd"/><rect x="5001.5" y="1139.5" width="64" height="635" stroke="#000000" stroke-width="9.16667" stroke-linejoin="round" stroke-miterlimit="10"/><rect x="5722.5" y="1138.5" width="68" height="636" stroke="#000000" stroke-width="9.16667" stroke-linejoin="round" stroke-miterlimit="10"/><rect x="4314.5" y="1842.5" width="279" height="733" stroke="#1C334E" stroke-width="9.16667" stroke-linejoin="round" stroke-miterlimit="10" fill="#B1A55B"/><rect x="4624.5" y="1842.5" width="279" height="733" stroke="#1C334E" stroke-width="9.16667" stroke-linejoin="round" stroke-miterlimit="10" fill="#B1A55B"/><path d="M0 0 56.4553 0 56.4553 112.091 404 112.091 404 161.999 0 161.999Z" fill="#F79646" fill-rule="evenodd" transform="matrix(1 0 0 -1 4203 2742)"/><path d="M5004 2742 4947.54 2742 4947.54 2629.91 4600 2629.91 4600 2580 5004 2580Z" fill="#F79646" fill-rule="evenodd"/><rect x="4206.5" y="1941.5" width="64" height="635" stroke="#000000" stroke-width="9.16667" stroke-linejoin="round" stroke-miterlimit="10"/><rect x="4927.5" y="1941.5" width="67.9995" height="635" stroke="#000000" stroke-width="9.16667" stroke-linejoin="round" stroke-miterlimit="10"/><rect x="5112.5" y="1842.5" width="280" height="733" stroke="#1C334E" stroke-width="9.16667" stroke-linejoin="round" stroke-miterlimit="10" fill="#B1A55B"/><rect x="5422.5" y="1842.5" width="280" height="733" stroke="#1C334E" stroke-width="9.16667" stroke-linejoin="round" stroke-miterlimit="10" fill="#B1A55B"/><path d="M0 0 56.4556 0 56.4556 112.091 405 112.091 405 162 0 162Z" fill="#F79646" fill-rule="evenodd" transform="matrix(1 0 0 -1 5001 2742)"/><path d="M5803 2742 5746.54 2742 5746.54 2629.91 5398 2629.91 5398 2580 5803 2580Z" fill="#F79646" fill-rule="evenodd"/><rect x="5004.5" y="1942.5" width="65" height="633" stroke="#000000" stroke-width="9.16667" stroke-linejoin="round" stroke-miterlimit="10"/><rect x="5725.5" y="1937.5" width="68" height="639" stroke="#000000" stroke-width="9.16667" stroke-linejoin="round" stroke-miterlimit="10"/><rect x="4320.5" y="2644.5" width="280" height="733" stroke="#1C334E" stroke-width="9.16667" stroke-linejoin="round" stroke-miterlimit="10" fill="#B1A55B"/><rect x="4630.5" y="2644.5" width="280" height="733" stroke="#1C334E" stroke-width="9.16667" stroke-linejoin="round" stroke-miterlimit="10" fill="#B1A55B"/><rect x="4206.5" y="2743.5" width="71" height="635" stroke="#000000" stroke-width="9.16667" stroke-linejoin="round" stroke-miterlimit="10"/><rect x="4934.5" y="2743.5" width="67" height="635" stroke="#000000" stroke-width="9.16667" stroke-linejoin="round" stroke-miterlimit="10"/><rect x="5119.5" y="2644.5" width="279" height="733" stroke="#1C334E" stroke-width="9.16667" stroke-linejoin="round" stroke-miterlimit="10" fill="#B1A55B"/><rect x="5429.5" y="2644.5" width="279" height="733" stroke="#1C334E" stroke-width="9.16667" stroke-linejoin="round" stroke-miterlimit="10" fill="#B1A55B"/><rect x="5008.5" y="2744.5" width="67" height="634" stroke="#000000" stroke-width="9.16667" stroke-linejoin="round" stroke-miterlimit="10"/><rect x="5732.5" y="2743.5" width="68" height="635" stroke="#000000" stroke-width="9.16667" stroke-linejoin="round" stroke-miterlimit="10"/><rect x="4206" y="3379" width="1607" height="69" fill="#F79646"/><path d="M0 0 54.001 0 54.001 112.091 404 112.091 404 162 0 162Z" fill="#F79646" fill-rule="evenodd" transform="matrix(1 0 0 -1 2598 1135)"/><path d="M3400 1135 3343.54 1135 3343.54 1022.91 2994 1022.91 2994 973 3400 973Z" fill="#F79646" fill-rule="evenodd"/><rect x="2709.5" y="1040.5" width="281" height="733" stroke="#1C334E" stroke-width="9.16667" stroke-linejoin="round" stroke-miterlimit="10" fill="#B1A55B"/><rect x="3020.5" y="1040.5" width="281" height="733" stroke="#1C334E" stroke-width="9.16667" stroke-linejoin="round" stroke-miterlimit="10" fill="#B1A55B"/><path d="M0 0 56.455 0 56.455 112.091 406 112.091 406 162 0 162Z" fill="#F79646" fill-rule="evenodd" transform="matrix(1 0 0 -1 2598 1940)"/><path d="M3402 1940 3345.54 1940 3345.54 1827.91 2996 1827.91 2996 1778 3402 1778Z" fill="#F79646" fill-rule="evenodd"/><rect x="2601.5" y="1139.5" width="65" height="635" stroke="#000000" stroke-width="9.16667" stroke-linejoin="round" stroke-miterlimit="10"/><rect x="3321.5" y="1138.5" width="70.9998" height="636" stroke="#000000" stroke-width="9.16667" stroke-linejoin="round" stroke-miterlimit="10"/><path d="M0 0 54.001 0 54.001 112.091 404 112.091 404 162 0 162Z" fill="#F79646" fill-rule="evenodd" transform="matrix(1 0 0 -1 3399 1135)"/><path d="M4201 1135 4144.54 1135 4144.54 1022.91 3795 1022.91 3795 973 4201 973Z" fill="#F79646" fill-rule="evenodd"/><rect x="3510.5" y="1040.5" width="281" height="733" stroke="#1C334E" stroke-width="9.16667" stroke-linejoin="round" stroke-miterlimit="10" fill="#B1A55B"/><rect x="3821.5" y="1040.5" width="280" height="733" stroke="#1C334E" stroke-width="9.16667" stroke-linejoin="round" stroke-miterlimit="10" fill="#B1A55B"/><path d="M0 0 56.4555 0 56.4555 112.091 405 112.091 405 162 0 162Z" fill="#F79646" fill-rule="evenodd" transform="matrix(1 0 0 -1 3399 1940)"/><path d="M4203 1940 4146.54 1940 4146.54 1827.91 3797 1827.91 3797 1778 4203 1778Z" fill="#F79646" fill-rule="evenodd"/><rect x="3402.5" y="1139.5" width="64" height="635" stroke="#000000" stroke-width="9.16667" stroke-linejoin="round" stroke-miterlimit="10"/><rect x="4125.5" y="1138.5" width="68" height="636" stroke="#000000" stroke-width="9.16667" stroke-linejoin="round" stroke-miterlimit="10"/><rect x="2713.5" y="1842.5" width="280" height="733" stroke="#1C334E" stroke-width="9.16667" stroke-linejoin="round" stroke-miterlimit="10" fill="#B1A55B"/><rect x="3024.5" y="1842.5" width="280" height="733" stroke="#1C334E" stroke-width="9.16667" stroke-linejoin="round" stroke-miterlimit="10" fill="#B1A55B"/><path d="M0 0 56.455 0 56.455 112.091 406 112.091 406 162 0 162Z" fill="#F79646" fill-rule="evenodd" transform="matrix(1 0 0 -1 2601 2742)"/><path d="M3405 2742 3348.54 2742 3348.54 2629.91 2999 2629.91 2999 2580 3405 2580Z" fill="#F79646" fill-rule="evenodd"/><rect x="2605.5" y="1941.5" width="64" height="635" stroke="#000000" stroke-width="9.16667" stroke-linejoin="round" stroke-miterlimit="10"/><rect x="3328.5" y="1941.5" width="68" height="635" stroke="#000000" stroke-width="9.16667" stroke-linejoin="round" stroke-miterlimit="10"/><rect x="3513.5" y="1842.5" width="281" height="733" stroke="#1C334E" stroke-width="9.16667" stroke-linejoin="round" stroke-miterlimit="10" fill="#B1A55B"/><rect x="3824.5" y="1842.5" width="281" height="733" stroke="#1C334E" stroke-width="9.16667" stroke-linejoin="round" stroke-miterlimit="10" fill="#B1A55B"/><path d="M0 0 56.455 0 56.455 112.091 406 112.091 406 162 0 162Z" fill="#F79646" fill-rule="evenodd" transform="matrix(1 0 0 -1 3402 2742)"/><path d="M4206 2742 4149.54 2742 4149.54 2629.91 3800 2629.91 3800 2580 4206 2580Z" fill="#F79646" fill-rule="evenodd"/><rect x="3405.5" y="1942.5" width="65" height="633" stroke="#000000" stroke-width="9.16667" stroke-linejoin="round" stroke-miterlimit="10"/><rect x="4128.5" y="1937.5" width="69" height="639" stroke="#000000" stroke-width="9.16667" stroke-linejoin="round" stroke-miterlimit="10"/><rect x="2719.5" y="2644.5" width="281" height="733" stroke="#1C334E" stroke-width="9.16667" stroke-linejoin="round" stroke-miterlimit="10" fill="#B1A55B"/><rect x="3030.5" y="2644.5" width="281" height="733" stroke="#1C334E" stroke-width="9.16667" stroke-linejoin="round" stroke-miterlimit="10" fill="#B1A55B"/><rect x="2605.5" y="2743.5" width="70.9998" height="635" stroke="#000000" stroke-width="9.16667" stroke-linejoin="round" stroke-miterlimit="10"/><rect x="3335.5" y="2743.5" width="68" height="635" stroke="#000000" stroke-width="9.16667" stroke-linejoin="round" stroke-miterlimit="10"/><rect x="3520.5" y="2644.5" width="281" height="733" stroke="#1C334E" stroke-width="9.16667" stroke-linejoin="round" stroke-miterlimit="10" fill="#B1A55B"/><rect x="3831.5" y="2644.5" width="281" height="733" stroke="#1C334E" stroke-width="9.16667" stroke-linejoin="round" stroke-miterlimit="10" fill="#B1A55B"/><rect x="3409.5" y="2744.5" width="67.9998" height="634" stroke="#000000" stroke-width="9.16667" stroke-linejoin="round" stroke-miterlimit="10"/><rect x="4136.5" y="2743.5" width="67" height="635" stroke="#000000" stroke-width="9.16667" stroke-linejoin="round" stroke-miterlimit="10"/><rect x="2605" y="3379" width="1611" height="69" fill="#F79646"/></g></svg>