<svg width="1368" height="1836" xmlns="http://www.w3.org/2000/svg" xmlns:xlink="http://www.w3.org/1999/xlink" xml:space="preserve" overflow="hidden"><g transform="translate(-227 -1064)"><path d="M231.5 1186C231.5 1122.21 283.211 1070.5 347 1070.5 410.789 1070.5 462.5 1122.21 462.5 1186 462.5 1249.79 410.789 1301.5 347 1301.5 283.211 1301.5 231.5 1249.79 231.5 1186Z" stroke="#1C334E" stroke-width="9.16667" stroke-linejoin="round" stroke-miterlimit="10" fill="#FFFFFF" fill-rule="evenodd"/><path d="M541.5 1977C541.5 1913.21 593.211 1861.5 657 1861.5 720.789 1861.5 772.5 1913.21 772.5 1977 772.5 2040.79 720.789 2092.5 657 2092.5 593.211 2092.5 541.5 2040.79 541.5 1977Z" stroke="#1C334E" stroke-width="9.16667" stroke-linejoin="round" stroke-miterlimit="10" fill="#FFFFFF" fill-rule="evenodd"/><path d="M238.5 1973.5C238.5 1909.44 289.987 1857.5 353.5 1857.5 417.013 1857.5 468.5 1909.44 468.5 1973.5 468.5 2037.57 417.013 2089.5 353.5 2089.5 289.987 2089.5 238.5 2037.57 238.5 1973.5Z" stroke="#1C334E" stroke-width="9.16667" stroke-linejoin="round" stroke-miterlimit="10" fill="#FFFFFF" fill-rule="evenodd"/><path d="M538.5 1184C538.5 1120.21 590.211 1068.5 654 1068.5 717.789 1068.5 769.5 1120.21 769.5 1184 769.5 1247.79 717.789 1299.5 654 1299.5 590.211 1299.5 538.5 1247.79 538.5 1184Z" stroke="#1C334E" stroke-width="9.16667" stroke-linejoin="round" stroke-miterlimit="10" fill="#FFFFFF" fill-rule="evenodd"/><path d="M1024.5 1198.5C1024.5 1134.43 1076.21 1082.5 1140 1082.5 1203.79 1082.5 1255.5 1134.43 1255.5 1198.5 1255.5 1262.57 1203.79 1314.5 1140 1314.5 1076.21 1314.5 1024.5 1262.57 1024.5 1198.5Z" stroke="#1C334E" stroke-width="9.16667" stroke-linejoin="round" stroke-miterlimit="10" fill="#FFFFFF" fill-rule="evenodd"/><path d="M552.5 2769C552.5 2705.21 604.211 2653.5 668 2653.5 731.789 2653.5 783.5 2705.21 783.5 2769 783.5 2832.79 731.789 2884.5 668 2884.5 604.211 2884.5 552.5 2832.79 552.5 2769Z" stroke="#1C334E" stroke-width="9.16667" stroke-linejoin="round" stroke-miterlimit="10" fill="#FFFFFF" fill-rule="evenodd"/><path d="M239.5 2765C239.5 2701.21 290.987 2649.5 354.5 2649.5 418.013 2649.5 469.5 2701.21 469.5 2765 469.5 2828.79 418.013 2880.5 354.5 2880.5 290.987 2880.5 239.5 2828.79 239.5 2765Z" stroke="#1C334E" stroke-width="9.16667" stroke-linejoin="round" stroke-miterlimit="10" fill="#FFFFFF" fill-rule="evenodd"/><path d="M1340.5 1975C1340.5 1911.21 1391.99 1859.5 1455.5 1859.5 1519.01 1859.5 1570.5 1911.21 1570.5 1975 1570.5 2038.79 1519.01 2090.5 1455.5 2090.5 1391.99 2090.5 1340.5 2038.79 1340.5 1975Z" stroke="#1C334E" stroke-width="9.16667" stroke-linejoin="round" stroke-miterlimit="10" fill="#FFFFFF" fill-rule="evenodd"/><path d="M1026.5 1981C1026.5 1917.21 1078.21 1865.5 1142 1865.5 1205.79 1865.5 1257.5 1917.21 1257.5 1981 1257.5 2044.79 1205.79 2096.5 1142 2096.5 1078.21 2096.5 1026.5 2044.79 1026.5 1981Z" stroke="#1C334E" stroke-width="9.16667" stroke-linejoin="round" stroke-miterlimit="10" fill="#FFFFFF" fill-rule="evenodd"/><path d="M1039.5 2780C1039.5 2716.21 1091.21 2664.5 1155 2664.5 1218.79 2664.5 1270.5 2716.21 1270.5 2780 1270.5 2843.79 1218.79 2895.5 1155 2895.5 1091.21 2895.5 1039.5 2843.79 1039.5 2780Z" stroke="#1C334E" stroke-width="9.16667" stroke-linejoin="round" stroke-miterlimit="10" fill="#FFFFFF" fill-rule="evenodd"/><path d="M1359.5 2776C1359.5 2712.21 1411.21 2660.5 1475 2660.5 1538.79 2660.5 1590.5 2712.21 1590.5 2776 1590.5 2839.79 1538.79 2891.5 1475 2891.5 1411.21 2891.5 1359.5 2839.79 1359.5 2776Z" stroke="#1C334E" stroke-width="9.16667" stroke-linejoin="round" stroke-miterlimit="10" fill="#FFFFFF" fill-rule="evenodd"/><path d="M1340.5 1199.5C1340.5 1135.43 1391.99 1083.5 1455.5 1083.5 1519.01 1083.5 1570.5 1135.43 1570.5 1199.5 1570.5 1263.57 1519.01 1315.5 1455.5 1315.5 1391.99 1315.5 1340.5 1263.57 1340.5 1199.5Z" stroke="#1C334E" stroke-width="9.16667" stroke-linejoin="round" stroke-miterlimit="10" fill="#FFFFFF" fill-rule="evenodd"/></g></svg>